<?xml version="1.0" encoding="UTF-8" standalone="no"?>
<svg
   id="svg"
   version="1.1"
   width="400"
   height="419.8722498225692"
   viewBox="0, 0, 400,419.8722498225692"
   sodipodi:docname="icon.svg"
   inkscape:version="1.1 (c4e8f9ed74, 2021-05-24)"
   xmlns:inkscape="http://www.inkscape.org/namespaces/inkscape"
   xmlns:sodipodi="http://sodipodi.sourceforge.net/DTD/sodipodi-0.dtd"
   xmlns="http://www.w3.org/2000/svg"
   xmlns:svg="http://www.w3.org/2000/svg">
  <defs
     id="defs11" />
  <sodipodi:namedview
     id="namedview9"
     pagecolor="#ffffff"
     bordercolor="#666666"
     borderopacity="1.0"
     inkscape:pageshadow="2"
     inkscape:pageopacity="0.0"
     inkscape:pagecheckerboard="0"
     showgrid="false"
     inkscape:zoom="1"
     inkscape:cx="19"
     inkscape:cy="262"
     inkscape:window-width="1920"
     inkscape:window-height="1024"
     inkscape:window-x="0"
     inkscape:window-y="28"
     inkscape:window-maximized="1"
     inkscape:current-layer="svg" />
  <g
     id="svgg"
     transform="translate(0.11155777,2.6697541)">
    <path
       id="path0"
       d="m 187.226,0.652 c -0.696,0.394 -1.403,1.128 -1.827,1.897 l -0.692,1.255 0.346,30.073 c 0.19,16.541 0.277,30.142 0.193,30.226 -0.083,0.084 -12.97,-0.01 -28.636,-0.209 -33.032,-0.419 -30.64,-0.635 -32.114,2.892 -0.724,1.734 -0.632,23.459 0.107,25.085 1.482,3.265 -0.456,3.108 33.022,2.672 15.125,-0.197 27.568,-0.289 27.653,-0.204 0.085,0.085 -0.007,32.142 -0.205,71.239 l -0.36,71.084 0.689,1.249 c 1.412,2.559 1.269,2.534 14.598,2.534 13.328,0 13.186,0.025 14.597,-2.534 l 0.689,-1.248 -0.36,-71.084 c -0.198,-39.096 -0.29,-71.154 -0.205,-71.239 0.085,-0.086 12.529,0.006 27.654,0.203 33.478,0.436 31.54,0.593 33.022,-2.672 0.739,-1.626 0.831,-23.351 0.107,-25.085 -1.474,-3.527 0.918,-3.311 -32.114,-2.892 -15.666,0.199 -28.553,0.292 -28.638,0.207 -0.085,-0.084 0.002,-13.686 0.194,-30.225 L 215.294,3.805 214.601,2.55 C 213.186,-0.016 213.334,0.009 200,0.009 c -11.568,0 -11.646,0.004 -12.774,0.643 m -80.484,102.869 c -0.858,0.044 -4.946,0.218 -9.084,0.386 -14.187,0.578 -34.545,2.216 -39.177,3.152 -10.53,2.127 -17.458,12.512 -14.93,22.379 0.524,2.046 0.407,2.275 -1.166,2.282 -10.545,0.051 -19.705,5.281 -22.191,12.67 -1.961,5.827 -0.43,10.747 5.729,18.41 0.874,1.087 1.548,2.017 1.498,2.066 -0.049,0.05 -2.328,0.339 -5.064,0.641 -10.288,1.139 -16.307,3.677 -19.791,8.344 -4.296,5.756 -3.56,9.886 3.143,17.627 4.603,5.315 5.063,5.885 7.569,9.374 11.429,15.912 18.818,36.767 23.894,67.441 5.232,31.608 5.555,54.236 1.262,88.414 -2.442,19.445 -1.735,27.113 3.454,37.473 6.988,13.95 23.737,25.55 36.891,25.55 8.896,0 13.438,-2.462 27.679,-15.008 6.479,-5.707 12.155,-9.792 20.866,-15.016 2.565,-1.538 3.808,-2.549 6.956,-5.664 4.121,-4.078 6.543,-6.011 10.787,-8.607 4.335,-2.652 4.104,-2.681 -3.028,-0.379 -13.956,4.504 -29.954,13.925 -42.832,25.225 -15.277,13.405 -22.538,16.683 -31.783,14.35 -5.15,-1.299 -14.438,-10.936 -18.286,-18.971 -4.723,-9.862 -5.384,-17.103 -3.168,-34.695 2.426,-19.256 2.981,-26.896 2.97,-40.88 -0.02,-23.226 -2.8,-47.006 -8.074,-69.049 -6.157,-25.733 -13.778,-41.897 -26.674,-56.572 -4.69,-5.336 -6.309,-8.035 -6.309,-10.518 0,-6.509 7.581,-12.041 18.462,-13.474 5.234,-0.689 4.749,-0.867 6.771,2.494 8.704,14.471 14.458,32.607 18.847,59.397 4.826,29.463 5.425,51.772 2.248,83.734 -2.051,20.637 -0.077,31.594 7.834,43.483 6.814,10.242 19.877,19.006 29.242,19.619 7.483,0.491 12.763,-2.476 24.114,-13.547 17.488,-17.057 34.622,-25.974 53.043,-27.603 l 3.931,-0.347 2.202,-2.421 c 3.081,-3.388 3.462,-4.461 2.386,-6.728 -0.898,-1.891 -1.118,-1.939 -8.888,-1.932 -22.331,0.02 -41.625,9.09 -62.711,29.479 -15.884,15.359 -23.379,15.662 -32.937,1.332 -6.932,-10.394 -8.271,-18.449 -6.325,-38.057 3.171,-31.954 2.476,-55.566 -2.529,-85.808 -5.709,-34.503 -13.611,-55.62 -27.399,-73.225 -5.624,-7.179 -5.857,-8.798 -1.811,-12.544 2.991,-2.769 5.901,-3.835 12.479,-4.573 l 3.832,-0.43 0.622,0.764 c 9.954,12.241 18.958,45.476 22.211,81.991 1.541,17.298 1.544,28.908 0.014,50.063 -1.124,15.538 -0.539,23.285 2.435,32.257 6.52,19.67 25.21,34.416 38.236,30.169 4.628,-1.509 6.488,-3.081 19.094,-16.138 18.883,-19.558 40.312,-24.643 60.449,-14.343 5.671,2.901 6.859,2.901 12.53,0 20.137,-10.3 41.566,-5.215 60.449,14.343 12.606,13.057 14.466,14.629 19.094,16.138 13.026,4.247 31.716,-10.499 38.236,-30.169 2.974,-8.972 3.559,-16.719 2.435,-32.257 -1.53,-21.155 -1.527,-32.765 0.014,-50.063 3.253,-36.515 12.257,-69.75 22.211,-81.991 l 0.622,-0.764 3.832,0.43 c 6.578,0.738 9.488,1.804 12.479,4.573 4.05,3.75 3.815,5.361 -1.833,12.573 -13.754,17.561 -21.675,38.739 -27.377,73.196 -5.005,30.242 -5.7,53.854 -2.529,85.808 1.692,17.044 0.923,24.517 -3.409,33.132 -3.193,6.351 -9.721,13.767 -12.962,14.725 -6.795,2.009 -11.835,-0.442 -22.891,-11.132 -21.086,-20.389 -40.38,-29.459 -62.711,-29.479 -7.77,-0.007 -7.99,0.041 -8.888,1.932 -1.076,2.267 -0.695,3.34 2.386,6.728 l 2.202,2.421 3.931,0.347 c 18.421,1.629 35.555,10.546 53.043,27.603 10.889,10.621 15.989,13.624 23.137,13.624 9.717,0 24.064,-9.708 31.082,-21.031 7.24,-11.682 8.964,-22.102 6.971,-42.148 -3.177,-31.962 -2.578,-54.271 2.248,-83.734 4.538,-27.704 10.069,-44.76 19.776,-60.983 l 0.817,-1.367 2.271,0.166 c 11.566,0.845 19.861,5.752 21.12,12.494 0.517,2.765 -0.699,5.311 -4.854,10.167 -13.685,15.992 -19.94,28.171 -26.171,50.965 -10.15,37.134 -12.378,73.55 -7.097,116.025 2.352,18.914 1.769,25.794 -3.037,35.83 -3.848,8.035 -13.136,17.672 -18.286,18.971 -9.245,2.333 -16.506,-0.945 -31.783,-14.35 -12.881,-11.302 -28.862,-20.717 -42.803,-25.216 -7.164,-2.312 -7.395,-2.284 -3.057,0.37 4.24,2.594 6.664,4.527 10.787,8.603 3.433,3.394 4.277,4.057 8.091,6.366 8.4,5.085 13.173,8.549 19.731,14.321 10.528,9.266 15.391,12.586 21.007,14.34 13.513,4.221 35.185,-8.16 43.563,-24.885 5.094,-10.171 5.886,-18.17 3.596,-36.338 -2.18,-17.292 -2.81,-24.803 -3.059,-36.479 -0.713,-33.435 6.476,-76.233 16.884,-100.513 4.807,-11.215 9.813,-19.054 18.758,-29.375 6.702,-7.733 7.439,-11.868 3.143,-17.624 -3.484,-4.667 -9.503,-7.205 -19.791,-8.344 -2.736,-0.302 -5.015,-0.591 -5.064,-0.641 -0.05,-0.049 0.624,-0.979 1.498,-2.066 6.159,-7.663 7.69,-12.583 5.729,-18.41 -2.486,-7.389 -11.646,-12.619 -22.191,-12.67 -1.573,-0.007 -1.69,-0.236 -1.166,-2.282 2.528,-9.867 -4.4,-20.252 -14.93,-22.379 -5.996,-1.211 -29.022,-2.869 -49.965,-3.597 -6.244,-0.217 -5.891,-0.319 -9.963,2.876 -4.965,3.895 -6.256,6.481 -5.369,10.753 0.857,4.131 2.372,4.83 11.043,5.1 16.356,0.51 25.067,1.033 38.356,2.303 8.178,0.782 10.496,1.283 12.388,2.677 2.321,1.71 2.336,1.901 0.362,4.755 -6.38,9.226 -9.009,13.85 -12.423,21.851 -8.018,18.792 -13.869,47.276 -16.521,80.432 -0.908,11.355 -0.65,31.448 0.618,48.119 1.335,17.553 -0.819,26.33 -8.571,34.922 -2.481,2.75 -2.631,2.836 -4.952,2.832 -3.656,-0.005 -6.443,-2.178 -15.625,-12.184 -22.944,-25.003 -52.718,-31.158 -77.064,-15.93 -4.273,2.672 -3.393,2.672 -7.666,0 -24.346,-15.228 -54.12,-9.073 -77.064,15.93 -12.366,13.476 -15.55,14.923 -20.577,9.352 -7.752,-8.592 -9.906,-17.369 -8.571,-34.922 1.268,-16.671 1.526,-36.764 0.618,-48.119 -2.537,-31.72 -8.042,-59.355 -15.593,-78.276 -3.291,-8.246 -6.739,-14.446 -13.351,-24.007 -1.974,-2.854 -1.959,-3.045 0.362,-4.755 1.892,-1.394 4.21,-1.895 12.388,-2.677 13.289,-1.27 22,-1.793 38.356,-2.303 8.671,-0.27 10.186,-0.969 11.043,-5.1 0.887,-4.272 -0.404,-6.858 -5.369,-10.753 -4.111,-3.225 -4.039,-3.208 -11.667,-2.817"
       stroke="none"
       fill="#040404"
       fill-rule="evenodd" />
    <path
       id="path1"
       d=""
       stroke="none"
       fill="#080404"
       fill-rule="evenodd" />
    <path
       id="path2"
       d=""
       stroke="none"
       fill="#080404"
       fill-rule="evenodd" />
    <path
       id="path3"
       d=""
       stroke="none"
       fill="#080404"
       fill-rule="evenodd" />
    <path
       id="path4"
       d=""
       stroke="none"
       fill="#080404"
       fill-rule="evenodd" />
  </g>
</svg>
