<?xml version="1.0" encoding="UTF-8" standalone="no"?>
<svg
   id="svg"
   version="1.1"
   width="400"
   height="419.8722498225692"
   viewBox="0, 0, 400,419.8722498225692"
   sodipodi:docname="iconNoPage.svg"
   inkscape:version="1.1 (c4e8f9ed74, 2021-05-24)"
   xmlns:inkscape="http://www.inkscape.org/namespaces/inkscape"
   xmlns:sodipodi="http://sodipodi.sourceforge.net/DTD/sodipodi-0.dtd"
   xmlns="http://www.w3.org/2000/svg"
   xmlns:svg="http://www.w3.org/2000/svg">
  <defs
     id="defs11" />
  <sodipodi:namedview
     id="namedview9"
     pagecolor="#ffffff"
     bordercolor="#666666"
     borderopacity="1.0"
     inkscape:pageshadow="2"
     inkscape:pageopacity="0.0"
     inkscape:pagecheckerboard="0"
     showgrid="false"
     inkscape:zoom="1.1476306"
     inkscape:cx="-134.6252"
     inkscape:cy="132.01112"
     inkscape:window-width="1894"
     inkscape:window-height="998"
     inkscape:window-x="10"
     inkscape:window-y="38"
     inkscape:window-maximized="1"
     inkscape:current-layer="svg" />
  <g
     id="svgg"
     transform="translate(0.11155777,2.6697541)">
    <path
       d="m 122.69922,344.44531 c -0.006,4.6e-4 -0.0142,0.001 -0.0215,0.002 -0.0177,0.002 -0.0874,0.0214 -0.11132,0.0254 -0.0871,0.061 -0.17457,0.12412 -0.26172,0.18554 0.10931,-0.0458 0.22684,-0.0722 0.33398,-0.12304 0.14836,-0.0704 0.1567,-0.0967 0.0605,-0.0899 z"
       transform="translate(-0.11155777,-2.6697541)"
       id="path1241" />
    <path
       d="m 41.847656,135.27734 c 0,0 -0.002,0.002 -0.002,0.002 2.25e-4,5.6e-4 -2.24e-4,0.001 0,0.002 0.0031,0.008 0.0066,0.0156 0.0098,0.0234 -0.0027,-0.0164 -0.0061,-0.0262 -0.0078,-0.0273 z"
       transform="translate(-0.11155777,-2.6697541)"
       id="path4141" />
    <path
       d="m 43.931641,133.69141 c 0.01563,0.0188 0.03401,0.0349 0.05078,0.0527 -0.0036,-0.006 -0.0059,-0.009 -0.0098,-0.0137 -0.0084,-0.0109 -0.03282,-0.0324 -0.04102,-0.0391 z"
       transform="translate(-0.11155777,-2.6697541)"
       id="path4522" />
    <path
       d="m 50.609375,145.04102 c -0.02274,5.6e-4 -0.03771,0.002 -0.05273,0.002 0.0045,0.007 0.0091,0.0143 0.01367,0.0215 0.02468,8.5e-4 0.04501,0.002 0.05859,0.004 -0.0068,-0.008 -0.01239,-0.02 -0.01953,-0.0273 z"
       transform="translate(-0.11155777,-2.6697541)"
       id="path6445" />
    <path
       d="m 111.31641,106.01172 c -1.13018,0.006 -2.55589,0.0819 -4.46289,0.17969 -0.858,0.044 -4.94599,0.21676 -9.083989,0.38476 -14.187,0.578 -34.545734,2.21635 -39.177734,3.15235 -10.53,2.127 -17.457688,12.5119 -14.929688,22.3789 0.17979,0.702 0.263443,1.17245 0.246094,1.50196 0.0029,0.004 0.0049,0.009 0.0078,0.0137 0.02501,0.0452 0.05158,0.0893 0.07617,0.13476 0.01418,0.0152 0.0282,0.0305 0.04102,0.0469 0.125976,0.1608 0.119219,0.1576 0.199219,0.30078 0.219111,0.42187 0.41182,0.8591 0.660156,1.26562 0.06363,0.11977 0.129996,0.23845 0.191406,0.35938 0.03735,0.0736 0.06387,0.15226 0.09961,0.22656 0.04706,0.0979 0.104607,0.18946 0.148437,0.28906 0.01586,0.0349 0.03137,0.0704 0.04687,0.10547 0.0077,0.0174 0.01539,0.0347 0.02148,0.0527 0.0035,0.0103 -0.01612,-0.006 -0.01172,0 0.02937,0.04 0.06261,0.0786 0.09375,0.11718 0.121278,0.24149 0.143916,0.23307 0.175781,0.3711 0.0878,0.12335 0.171772,0.24823 0.226563,0.39062 0.0086,0.0343 0.04665,0.0832 0.0625,0.10938 0.0064,0.0106 0.01463,0.0218 0.01953,0.0332 0.0011,0.003 -0.0035,0.006 -0.002,0.008 0.02912,0.0388 0.06112,0.0737 0.0918,0.11133 0.03769,0.0595 0.07724,0.11909 0.113281,0.17969 0.03282,0.0551 0.05772,0.11527 0.08789,0.17187 0.05526,0.10376 0.114882,0.20471 0.169922,0.3086 0.111091,0.18725 -0.01018,-0.009 0.152344,0.22461 0.164066,0.23581 0.301484,0.48679 0.453125,0.73047 0.04799,0.0876 0.0963,0.17517 0.142578,0.26367 0.008,0.0153 0.01423,0.0305 0.01953,0.0469 0.0039,0.0121 0.0014,0.0262 0.0078,0.0371 0.02052,0.0345 0.04916,0.0648 0.07227,0.0977 0.13796,0.19642 0.148258,0.21759 0.285156,0.42578 0.06918,0.11555 0.140371,0.22867 0.207031,0.3457 0.01623,0.0284 0.02739,0.0601 0.04102,0.0899 -0.0083,-6e-5 -0.02939,-0.007 -0.02539,0 0.01541,0.0285 0.04388,0.0473 0.06445,0.0723 0.100055,0.12168 0.08978,0.112 0.175782,0.23633 0.0392,0.0682 0.07929,0.13618 0.117187,0.20508 0.0205,0.0372 0.01058,0.0886 0.05469,0.11523 0.08849,0.15298 0.194297,0.29569 0.285157,0.44727 0.172044,0.27692 0.339032,0.55753 0.501953,0.83984 0.103107,0.17263 0.01967,0.042 0.15625,0.23242 0.148906,0.20763 0.294077,0.42033 0.410156,0.64844 0.122903,0.23375 0.267977,0.46155 0.341797,0.7168 -0.01646,0.003 0.01531,0.0297 0.01563,0.0332 0.03987,0.0577 0.07967,0.11545 0.115234,0.17578 0.08637,0.14647 0.08872,0.1653 0.08398,0.16602 0.0036,0.005 0.01239,0.0198 0.04102,0.0566 0.02124,0.0299 0.04176,0.0597 0.0625,0.0898 0.01106,0.0135 0.01788,0.021 0.02734,0.0332 0.178247,0.15575 0.18308,0.1306 0.275391,0.28515 0.02643,0.0443 0.09631,0.16625 0.121093,0.21875 0.0038,0.008 0.01317,0.0225 0.01563,0.0312 7.31e-4,1.5e-4 0.0033,-1.5e-4 0.0039,0 0.126357,0.03 0.215578,0.33842 0.265625,0.55664 0,0 0,0.002 0,0.002 l 0.490234,0.59961 c 9.954,12.241 18.957938,45.47718 22.210938,81.99218 1.541,17.298 1.543723,28.9075 0.01367,50.0625 -1.123998,15.538 -0.538453,23.28386 2.435547,32.25586 6.52,19.67 25.208371,34.41692 38.234371,30.16992 4.628,-1.509 6.48971,-3.08167 19.09571,-16.13867 18.883,-19.558 40.31026,-24.64179 60.44726,-14.34179 5.671,2.901 6.86025,2.901 12.53125,0 20.137,-10.3 41.56622,-5.21621 60.44922,14.34179 12.606,13.057 14.46575,14.62967 19.09375,16.13867 13.026,4.247 31.71633,-10.49992 38.23633,-30.16992 2.974,-8.972 3.55759,-16.71786 2.43359,-32.25586 -1.53,-21.155 -1.52399,-32.7645 0.0156,-50.0625 3.23111,-36.26927 12.13762,-69.28025 22.01172,-81.71875 l -0.0332,-0.0293 c 0.18031,-0.20465 0.15315,-0.16296 0.30664,-0.37696 0.0252,-0.0352 0.0579,-0.0666 0.0723,-0.10742 0.004,-0.01 -0.0252,0.002 -0.0332,-0.006 -0.007,-0.007 -0.005,-0.0203 -0.002,-0.0293 0.0371,-0.11322 0.0803,-0.22397 0.1211,-0.33593 0.0931,-0.22641 0.25133,-0.41351 0.38476,-0.61524 0.009,-0.0143 0.0194,-0.0276 0.0274,-0.043 0.001,-0.003 -0.003,-0.006 -0.004,-0.008 0.006,-0.014 0.0106,-0.0275 0.0176,-0.041 0.0907,-0.17252 0.17516,-0.30027 0.29101,-0.45704 0.026,-0.0321 0.0554,-0.0612 0.0781,-0.0957 0.0322,-0.0488 0.0564,-0.10184 0.0859,-0.15234 0.0404,-0.0692 0.0859,-0.13713 0.125,-0.20703 0.22892,-0.4095 0.0208,-0.0469 0.13672,-0.27735 0.0422,-0.0839 0.0874,-0.1667 0.13086,-0.25 0.17702,-0.34024 0.41543,-0.64093 0.6582,-0.93554 0.17124,-0.19578 0.24867,-0.45295 0.36914,-0.67969 0.0651,-0.12261 0.13678,-0.24043 0.20508,-0.36133 0.0468,-0.0732 0.0933,-0.1479 0.14062,-0.2207 0.0939,-0.14458 0.19636,-0.28384 0.28516,-0.43164 0.59108,-0.98383 -0.0851,0.11096 0.45898,-0.80664 0.0782,-0.13192 0.16109,-0.26044 0.24219,-0.39063 0.0471,-0.0673 0.10148,-0.13017 0.14258,-0.20117 0.0821,-0.14188 0.15281,-0.2901 0.22851,-0.43555 0.31416,-0.60402 0.15498,-0.3052 0.47266,-0.90625 0.038,-0.072 0.0742,-0.14649 0.11523,-0.21679 0.0533,-0.0916 0.11012,-0.17954 0.16602,-0.26954 0.039,-0.0541 0.0838,-0.10431 0.11719,-0.16211 0.0657,-0.11347 0.11919,-0.23326 0.17969,-0.3496 0.072,-0.13848 0.14775,-0.27506 0.21875,-0.41407 0.11315,-0.22154 0.2319,-0.4465 0.3164,-0.68164 0.0354,-0.0896 0.0685,-0.17943 0.10742,-0.26758 0.023,-0.0521 0.0521,-0.10164 0.0781,-0.15234 0.0525,-0.10224 0.10405,-0.20427 0.15625,-0.30664 0.18834,-0.36912 0.1037,-0.19394 0.29492,-0.60742 0.0311,-0.071 0.0574,-0.14339 0.0918,-0.21289 0.30237,-0.60992 0.16356,-0.30569 0.42773,-0.79492 0.0651,-0.12051 0.12716,-0.24133 0.18946,-0.36329 0.0394,-0.0772 0.0725,-0.15897 0.11523,-0.23437 0.0926,-0.16336 0.19433,-0.32145 0.29101,-0.48242 0.0364,-0.0553 0.0729,-0.11066 0.10938,-0.16602 0.027,-0.11597 0.0289,-0.18142 0.0625,-0.3125 2.528,-9.867 -4.39969,-20.2519 -14.92969,-22.3789 -5.996,-1.211 -29.02184,-2.86966 -49.96484,-3.59766 -6.244,-0.217 -5.89088,-0.31805 -9.96289,2.87695 -4.96499,3.895 -6.25614,6.48191 -5.36914,10.75391 0.857,4.131 2.37197,4.82961 11.04297,5.09961 16.356,0.51 25.06646,1.03273 38.35547,2.30273 8.17799,0.782 10.49667,1.28178 12.38867,2.67578 2.321,1.71 2.33532,1.90186 0.36133,4.75586 -6.38,9.226 -9.00983,13.85057 -12.42383,21.85157 -8.018,18.792 -13.86753,47.27564 -16.51953,80.43164 -0.908,11.355 -0.65082,31.44814 0.61718,48.11914 1.335,17.553 -0.81831,26.32987 -8.57031,34.92187 -2.481,2.75 -2.63212,2.83603 -4.95312,2.83203 -3.656,-0.005 -6.443,-2.17759 -15.625,-12.18359 -22.944,-25.003 -52.7165,-31.15769 -77.0625,-15.92969 -4.273,2.672 -3.39302,2.672 -7.66602,0 -24.346,-15.228 -54.12045,-9.07331 -77.06445,15.92969 -12.366,13.476 -15.55113,14.92256 -20.578128,9.35156 -7.752,-8.592 -9.905313,-17.36887 -8.570313,-34.92187 1.268,-16.671 1.525188,-36.76414 0.617188,-48.11914 -2.537,-31.72 -8.040797,-59.35439 -15.591797,-78.27539 -3.291,-8.246 -6.739565,-14.44682 -13.351562,-24.00782 -1.974,-2.854 -1.957719,-3.04586 0.363281,-4.75586 1.892,-1.394 4.208714,-1.89378 12.386719,-2.67578 13.289,-1.27 21.999515,-1.79273 38.355472,-2.30273 8.671,-0.27 10.18598,-0.96861 11.04296,-5.09961 0.88703,-4.272 -0.40218,-6.85891 -5.36718,-10.75391 -3.08325,-2.41875 -3.81457,-3.01465 -7.20508,-2.99609 z"
       transform="translate(-0.11155777,-2.6697541)"
       id="path255" />
    <path
       d="m 200.11133,2.6796875 c -11.568,0 -11.64544,0.00358 -12.77344,0.6425781 -0.696,0.394 -1.40412,1.1274844 -1.82812,1.8964844 l -0.69141,1.2558594 0.3457,30.0722656 c 0.19,16.541 0.27736,30.142561 0.19336,30.226563 -0.083,0.084 -12.97072,-0.01 -28.63672,-0.208985 -33.032,-0.419 -30.63928,-0.636375 -32.11328,2.890625 -0.724,1.734 -0.63158,23.459938 0.10742,25.085938 1.482,3.265 -0.45651,3.107875 33.02149,2.671875 15.125,-0.197 27.56734,-0.290078 27.65234,-0.205079 0.085,0.085 -0.007,32.143238 -0.20508,71.240238 l -0.35937,71.08398 0.68945,1.24805 c 1.412,2.559 1.26866,2.53515 14.59766,2.53515 13.328,0 13.18665,0.0239 14.59765,-2.53515 l 0.68946,-1.24805 -0.36133,-71.08398 c -0.198,-39.096 -0.29008,-71.153284 -0.20508,-71.238284 0.085,-0.086 12.5293,0.0061 27.6543,0.203125 33.478,0.436 31.53948,0.593125 33.02148,-2.671875 0.739,-1.626 0.83142,-23.351938 0.10742,-25.085938 -1.474,-3.527 0.91872,-3.309625 -32.11328,-2.890625 -15.666,0.199 -28.55367,0.292031 -28.63867,0.207031 -0.085,-0.084 0.001,-13.687562 0.19336,-30.226562 l 0.34961,-30.0703126 -0.69336,-1.2539063 c -1.415,-2.566 -1.26756,-2.5410156 -14.60156,-2.5410156 z"
       transform="translate(-0.11155777,-2.6697541)"
       id="path0" />
    <path
       id="path1"
       d=""
       stroke="none"
       fill="#080404"
       fill-rule="evenodd" />
    <path
       id="path2"
       d=""
       stroke="none"
       fill="#080404"
       fill-rule="evenodd" />
    <path
       id="path3"
       d=""
       stroke="none"
       fill="#080404"
       fill-rule="evenodd" />
    <path
       id="path4"
       d=""
       stroke="none"
       fill="#080404"
       fill-rule="evenodd" />
  </g>
</svg>
